<svg width="75" height="82.62" viewBox="0 0 523 576" fill="none" xmlns="http://www.w3.org/2000/svg">
<path d="M11 395.345C112.548 368.086 169.615 315.845 204.544 222.641C179.793 147.586 172.126 65.573 169.597 12.0001C177.704 51.289 191.517 115.306 218.281 179.935C227.32 147.158 234.524 110.19 240.567 68.547C253.605 131.383 252.008 184.149 240.668 227.716C251.991 249.083 264.986 269.842 279.929 289.072C279.973 165.032 400.954 46.2798 523 12.0001C418.332 80.0265 304.6 206.69 318.97 331.188C357.376 365.519 405.446 389.796 465.789 395.345C413.804 407.221 370.93 403.542 335.564 389.054C338.367 395 341.523 400.919 345.048 406.803C393.498 412.858 451.204 426.251 523 446.75C458.757 434.726 404.807 427.482 357.642 425.555C381.315 457.263 416.508 487.719 465.789 515.781C407.808 488.558 365.326 457.737 335.735 425.042C203.415 424.366 124.702 470.175 11 576C124.28 449.639 184.727 394.388 318.745 404.172C309.869 391.96 302.641 379.546 296.935 367.014C265.726 343.535 242.126 310.172 224.27 272.453C178.02 367.694 78.8169 403.661 11 395.345Z" fill="#FF9C9C"/>
<path d="M0 383.345C101.548 356.086 158.615 303.845 193.544 210.641C168.793 135.586 161.126 53.573 158.597 6.10352e-05C166.704 39.289 180.517 103.306 207.281 167.935C216.32 135.158 223.524 98.1897 229.567 56.547C242.605 119.383 241.008 172.149 229.668 215.716C240.991 237.083 253.986 257.842 268.929 277.072C268.973 153.032 389.954 34.2798 512 8.58977e-05C407.332 68.0265 293.6 194.69 307.97 319.188C346.376 353.519 394.446 377.796 454.789 383.345C402.804 395.221 359.93 391.542 324.564 377.054C327.367 383 330.523 388.919 334.048 394.803C382.498 400.858 440.204 414.251 512 434.75C447.757 422.726 393.807 415.482 346.642 413.555C370.315 445.263 405.508 475.719 454.789 503.781C396.808 476.558 354.326 445.737 324.735 413.042C192.415 412.366 113.702 458.175 0 564C113.28 437.639 173.727 382.388 307.745 392.172C298.869 379.96 291.641 367.546 285.935 355.014C254.726 331.535 231.126 298.172 213.27 260.453C167.02 355.694 67.8169 391.661 0 383.345Z" fill="#4D4D4D"/>
</svg>
