<svg width="321" height="415" viewBox="0 0 321 415" fill="none" xmlns="http://www.w3.org/2000/svg">
<path d="M115 152.5C113.597 150.423 112.135 148.07 110.68 145.5M110.68 145.5C98.4738 123.947 86.7663 87.1547 115 70C146.6 50.8 186.167 62 202 70C217.167 77.5001 238.4 103.1 202 145.5C265 100.5 242.5 52.0001 225.5 35.0001C208.5 18.0001 186.5 9 151 9.00006C113.637 9.00012 89.6195 23.3964 78.5 50.5001C70.5 70 95.4531 122.5 110.68 145.5ZM9.5 152.5C52.5 174 280 174 312.5 152.5C287.667 218.333 252.9 361.1 312.5 405.5C228.333 379.167 49.9 342.3 9.5 405.5C29 348.333 56.3 217.7 9.5 152.5Z" stroke="black" stroke-width="17" stroke-linejoin="round"/>
<path d="M298 414C201.659 385.949 73.5749 361.198 19 414C55.1976 389.799 193.305 389.523 298 414Z" fill="#767676"/>
<circle cx="111.5" cy="197.5" r="9.5" fill="black"/>
<circle cx="205.5" cy="197.5" r="9.5" fill="black"/>
</svg>
