<svg width="80" height="80" viewBox="0 0 100 100" fill="none" xmlns="http://www.w3.org/2000/svg">
<path d="M0 67.9689C19.8337 63.1358 30.9796 53.8732 37.8016 37.3478C32.9674 24.0401 31.47 9.49881 30.976 6.10352e-05C32.5594 6.96619 35.2572 18.3167 40.4846 29.7758C42.2499 23.9643 43.657 17.4096 44.8373 10.0261C47.3837 21.1672 47.072 30.523 44.8569 38.2475C47.0685 42.036 49.6066 45.7166 52.5253 49.1263C52.5338 27.1334 76.1629 6.07803 100 6.54434e-05C79.557 12.0615 57.3437 34.5196 60.1504 56.5936C67.6515 62.6807 77.0403 66.9852 88.826 67.9689C78.6727 70.0747 70.2988 69.4224 63.3914 66.8535C63.9389 67.9078 64.5553 68.9572 65.2437 70.0005C74.7067 71.0742 85.9774 73.4489 100 77.0834C87.4525 74.9515 76.9155 73.6671 67.7036 73.3254C72.3272 78.9475 79.2007 84.3473 88.826 89.323C77.5015 84.4962 69.2044 79.0314 63.4248 73.2344C37.5811 73.1146 22.2074 81.2368 0 100C22.125 77.5957 33.931 67.7994 60.1065 69.5342C58.3728 67.3689 56.9611 65.1678 55.8467 62.9459C49.7511 58.7829 45.1418 52.8674 41.6543 46.1796C32.6211 63.0664 13.2455 69.4435 0 67.9689Z" fill="#4D4D4D"/>
</svg>
