<svg width="75" height="82.62" viewBox="0 0 517 578" fill="none" xmlns="http://www.w3.org/2000/svg">
<path d="M5 397.345C106.548 370.086 163.615 317.845 198.544 224.641C173.793 149.586 166.126 67.573 163.597 14.0001C171.704 53.289 185.517 117.306 212.281 181.935C221.32 149.158 228.524 112.19 234.567 70.547C247.605 133.383 246.008 186.149 234.668 229.716C245.991 251.083 258.986 271.842 273.929 291.072C273.973 167.032 394.954 48.2798 517 14.0001C412.332 82.0265 298.6 208.69 312.97 333.188C351.376 367.519 399.446 391.796 459.789 397.345C407.804 409.221 364.93 405.542 329.564 391.054C332.367 397 335.523 402.919 339.048 408.803C387.498 414.858 445.204 428.251 517 448.75C452.757 436.726 398.807 429.482 351.642 427.555C375.315 459.263 410.508 489.719 459.789 517.781C401.808 490.558 359.326 459.737 329.735 427.042C197.415 426.366 118.702 472.175 5 578C118.28 451.639 178.727 396.388 312.745 406.172C303.869 393.96 296.641 381.546 290.935 369.014C259.726 345.535 236.126 312.172 218.27 274.453C172.02 369.694 72.8169 405.661 5 397.345Z" fill="#ACACAC"/>
<path d="M0 383.345C101.548 356.086 158.615 303.845 193.544 210.641C168.793 135.586 161.126 53.573 158.597 6.10352e-05C166.704 39.289 180.517 103.306 207.281 167.935C216.32 135.158 223.524 98.1897 229.567 56.547C242.605 119.383 241.008 172.149 229.668 215.716C240.991 237.083 253.986 257.842 268.929 277.072C268.973 153.032 389.954 34.2798 512 8.58977e-05C407.332 68.0265 293.6 194.69 307.97 319.188C346.376 353.519 394.446 377.796 454.789 383.345C402.804 395.221 359.93 391.542 324.564 377.054C327.367 383 330.523 388.919 334.048 394.803C382.498 400.858 440.204 414.251 512 434.75C447.757 422.726 393.807 415.482 346.642 413.555C370.315 445.263 405.508 475.719 454.789 503.781C396.808 476.558 354.326 445.737 324.735 413.042C192.415 412.366 113.702 458.175 0 564C113.28 437.639 173.727 382.388 307.745 392.172C298.869 379.96 291.641 367.546 285.935 355.014C254.726 331.535 231.126 298.172 213.27 260.453C167.02 355.694 67.8169 391.661 0 383.345Z" fill="#4D4D4D"/>
</svg>
